# xmcd CD database file
#
# Track frame offsets:
#	150
#	12271
#	41502
#	57746
#
# Disc length: 862 seconds
#
# Revision: 0
# Processed by: cddbd v1.5.2PL0 Copyright (c) Steve Scherf et al.
# Submitted via: CDex 1.51
#
DISCID=2f035c04
DTITLE=Klaske Kamstra - Combo
DYEAR=1900
DGENRE=Jazz
TTITLE0=Brigas, nunca mais
TTITLE1=It never entered my mind
TTITLE2=But not for me
TTITLE3=Historia de un amor
EXTD=
EXTT0=
EXTT1=
EXTT2=
EXTT3=
PLAYORDER=
